<svg xmlns="http://www.w3.org/2000/svg" viewBox="0 0 16 16" shape-rendering="crispEdges">
  <rect width="16" height="16" rx="3" fill="#0d1117"/>
  <rect x="1" y="1" width="14" height="14" rx="2" fill="#111820"/>
  <rect x="7" y="3" width="3" height="1" fill="#ee9a77"/>
  <rect x="5" y="4" width="7" height="1" fill="#ee9a77"/>
  <rect x="4" y="5" width="9" height="1" fill="#d77757"/>
  <rect x="3" y="6" width="11" height="1" fill="#d77757"/>
  <rect x="2" y="7" width="1" height="1" fill="#d77757"/>
  <rect x="4" y="7" width="11" height="1" fill="#d77757"/>
  <rect x="2" y="8" width="13" height="1" fill="#d77757"/>
  <rect x="3" y="9" width="10" height="1" fill="#c7654d"/>
  <rect x="4" y="10" width="7" height="1" fill="#b95d45"/>
  <rect x="6" y="11" width="4" height="1" fill="#b95d45"/>
  <rect x="3" y="7" width="1" height="1" fill="#0d1117"/>
  <rect x="13" y="6" width="2" height="1" fill="#d77757"/>
  <rect x="14" y="5" width="1" height="1" fill="#d77757"/>
  <rect x="14" y="9" width="1" height="1" fill="#c7654d"/>
  <rect x="1" y="11" width="2" height="1" fill="#78c6d0"/>
  <rect x="2" y="12" width="3" height="1" fill="#78c6d0"/>
</svg>
