<svg xmlns="http://www.w3.org/2000/svg" viewBox="0 0 64 64" role="img" aria-label="Leviathan icon">
  <defs>
    <linearGradient id="bg" x1="8" y1="6" x2="56" y2="58" gradientUnits="userSpaceOnUse">
      <stop offset="0" stop-color="#16202a"/>
      <stop offset="1" stop-color="#080b10"/>
    </linearGradient>
    <linearGradient id="body" x1="13" y1="20" x2="54" y2="44" gradientUnits="userSpaceOnUse">
      <stop offset="0" stop-color="#f0a07d"/>
      <stop offset="0.55" stop-color="#dc7d5a"/>
      <stop offset="1" stop-color="#bd5e47"/>
    </linearGradient>
    <linearGradient id="belly" x1="15" y1="36" x2="42" y2="50" gradientUnits="userSpaceOnUse">
      <stop offset="0" stop-color="#f5b698"/>
      <stop offset="1" stop-color="#dc7d5a"/>
    </linearGradient>
    <filter id="softShadow" x="-20%" y="-20%" width="140%" height="140%">
      <feDropShadow dx="0" dy="2" stdDeviation="1.4" flood-color="#000000" flood-opacity="0.35"/>
    </filter>
  </defs>

  <rect width="64" height="64" rx="15" fill="#05070b"/>
  <rect x="4" y="4" width="56" height="56" rx="13" fill="url(#bg)"/>
  <path d="M14 49c7 4 21 4 31-1" fill="none" stroke="#63c0ce" stroke-width="3" stroke-linecap="round" opacity="0.9"/>
  <path d="M10 53c5 2 12 2 18 1" fill="none" stroke="#2b7f91" stroke-width="2" stroke-linecap="round" opacity="0.75"/>

  <g filter="url(#softShadow)">
    <path d="M8.5 34.3C9.8 24.6 20.7 18.2 34.4 19.4c7.8.7 14.5 4.4 17.2 10.1l7.2-5.7c1.2-.9 2.9-.1 2.9 1.4v17.1c0 1.5-1.7 2.3-2.9 1.4l-7.3-5.9c-3.1 5.5-10.1 9.2-18.6 9.7C18.9 48.4 7.2 43.7 8.5 34.3Z" fill="url(#body)"/>
    <path d="M12 37.3c5.5 4.5 16.7 6 28.8 3.2 1.6-.4 3.3-.9 5-1.5-3.3 5-9.6 8-17.1 8.5-9.9.6-18.2-2.9-20-9 .9-.3 2-.7 3.3-1.2Z" fill="url(#belly)" opacity="0.72"/>
    <path d="M30.6 19.2c3.2-6.7 11-8.7 18.5-5.6-4.8 2-8.5 5.2-10.8 9.4-2.4-1.3-5-2.5-7.7-3.8Z" fill="#ee9a77"/>
    <path d="M50.8 30.1c2.5 1.2 5.5 2.8 7.6 4.2-2.1 1.4-5.1 3-7.6 4.2.9-2.8.9-5.6 0-8.4Z" fill="#a94f3f" opacity="0.85"/>
    <circle cx="21.4" cy="31.1" r="2.6" fill="#081017"/>
    <circle cx="20.5" cy="30.2" r="0.75" fill="#f8d5c5"/>
    <path d="M27 38.5c4.8 1.3 10.4.9 15.8-1.3" fill="none" stroke="#933f35" stroke-width="2" stroke-linecap="round" opacity="0.45"/>
  </g>
</svg>
